<svg id="a675b807-b271-412e-8e9f-c49b697ab92e" data-name="Layer 1" xmlns="http://www.w3.org/2000/svg" width="865.76" height="682.89" viewBox="0 0 865.76 682.89"><path d="M254.9,75.63H823.18a0,0,0,0,1,0,0v544.2a18.06,18.06,0,0,1-18.06,18.06H273a18.06,18.06,0,0,1-18.06-18.06V75.63a0,0,0,0,1,0,0Z" fill="none" stroke="#000000" stroke-miterlimit="10"/><path d="M273.75,34.27H804.33a18.85,18.85,0,0,1,18.85,18.85v22.5a0,0,0,0,1,0,0H254.9a0,0,0,0,1,0,0V53.12A18.85,18.85,0,0,1,273.75,34.27Z" fill="#000000"/><circle cx="278.99" cy="56.43" r="6.29" fill="#fff"/><path d="M297.86,50.14a6.29,6.29,0,1,0,6.29,6.29A6.28,6.28,0,0,0,297.86,50.14Z" fill="#fff"/><path d="M316.73,50.14A6.29,6.29,0,1,0,323,56.43,6.28,6.28,0,0,0,316.73,50.14Z" fill="#fff"/><rect x="330.76" y="486.87" width="69.51" height="28.94" fill="#e6e6e6"/><rect x="405.58" y="486.87" width="69.51" height="28.94" fill="#e6e6e6"/><rect x="480.4" y="486.87" width="69.51" height="28.94" fill="#e6e6e6"/><rect x="555.22" y="486.87" width="69.51" height="28.94" fill="#e6e6e6"/><rect x="630.04" y="486.87" width="69.51" height="28.94" fill="#e6e6e6"/><rect x="704.86" y="486.87" width="69.51" height="28.94" fill="#e6e6e6"/><rect x="300.27" y="107.15" width="69.51" height="28.94" fill="#e6e6e6"/><rect x="375.09" y="107.15" width="69.51" height="28.94" fill="#e6e6e6"/><rect x="449.91" y="107.15" width="69.51" height="28.94" fill="#e6e6e6"/><rect x="524.73" y="107.15" width="69.51" height="28.94" fill="#e6e6e6"/><rect x="302.93" y="309.75" width="293.97" height="153.97" fill="#e6e6e6"/><rect x="300.27" y="175.75" width="293.97" height="5.46" fill="#e6e6e6"/><rect x="300.27" y="194.41" width="293.97" height="5.46" fill="#e6e6e6"/><rect x="300.27" y="157.08" width="293.97" height="5.46" fill="#e6e6e6"/><rect x="300.27" y="213.08" width="293.97" height="5.46" fill="#e6e6e6"/><rect x="300.27" y="231.75" width="293.97" height="5.46" fill="#e6e6e6"/><rect x="300.27" y="250.41" width="293.97" height="5.46" fill="#e6e6e6"/><rect x="300.27" y="269.08" width="293.97" height="5.46" fill="#e6e6e6"/><rect x="660.86" y="102.59" width="116.95" height="60.64" fill="#e6e6e6"/><rect x="660.86" y="171.2" width="116.95" height="5.46" fill="#e6e6e6"/><rect x="660.86" y="288.95" width="116.95" height="60.64" fill="#e6e6e6"/><rect x="660.86" y="357.55" width="116.95" height="5.46" fill="#e6e6e6"/><rect x="660.86" y="382.28" width="116.95" height="60.64" fill="#e6e6e6"/><rect x="660.86" y="450.88" width="116.95" height="5.46" fill="#e6e6e6"/><rect x="660.86" y="195.92" width="116.95" height="60.64" fill="#e6e6e6"/><rect x="660.86" y="264.53" width="116.95" height="5.46" fill="#e6e6e6"/><path d="M261.08,253.06s12.9-3.68,13.71,4.51-2.25,12.9-6.55,14.12-20.47-.4-20.47-.4l-12.9,3.27,2.46-14.33s9.62-3.89,11.46-4.5Z" fill="#f9b499"/><path d="M48.85,333.33s-3.69,12.9,4.5,13.71,12.9-2.25,14.13-6.55S67.07,320,67.07,320l3.28-12.9L56,309.58s-3.89,9.62-4.5,11.46Z" fill="#f9b499"/><polygon points="104.47 125.38 104.47 133.23 113.63 133.42 115.18 124.55 104.47 125.38" fill="#bf3c3c"/><polygon points="232.3 254 243.13 255.27 244.48 275.25 232.3 275.25 232.3 254" fill="#000000"/><path d="M245,275.73H231.82V253.46l11.77,1.38Zm-12.22-1H244l-1.29-19.06-9.9-1.17Z" fill="#000000"/><path d="M236.74,276.42c-1.12-12-1.69-23.46-1.7-23.57l0-.43-41.86-3.5-6.47-58.08-.53.12c-6.24,1.47-21.67,17.59-22.32,18.28l-.13.14v.19c0,20.25,10,63.29,10.1,63.73l.06.22.21.1c7,3.28,22.93,4.08,36.95,4.08,13,0,24.3-.69,25.26-.75l.49,0Z" fill="#bf3c3c"/><path d="M157.75,295.94c-23.6,0-46.42-12.31-46.64-12.43l-.39-.22.2-.39c.06-.11,5.67-11,5.37-26.92-.29-15.52-12.76-41.74-23.35-59.47-10-16.77-11-31-11.32-46.66a14,14,0,0,1,4-10.39c6.71-6.83,19.47-7.22,21.12-7.24.57-.47,3.39-3.13,4.24-9.63,1-7.41,1-20.74,1-20.88v-.42l.42,0s.92-.06,2.39-.06a47.31,47.31,0,0,1,14.49,2.14c6.74,2.29,10.84,6.22,12.19,11.67l0,.11,0,.1c-.05.22-4.81,22.27-.1,29l2.12,1.86c4.39,3.54,7.63,4.05,13,4.89,1.19.19,2.54.4,4,.66,7.75,1.39,9,2.45,10.55,3.79.26.23.54.47.86.72,1.74,1.33,2.54,4.24,3.64,8.26,1.77,6.44,4.45,16.16,13.17,26.77,3,3.65,4.18,7.3,3.49,10.83-1.13,5.77-6.81,9.27-7.88,9.89-3.31,10.8-4.44,16-5,27.54-.47,9.42,3.31,20.4,6.55,28a124.87,124.87,0,0,0,7.25,14.31l.18.3-.24.25c-8.83,9.1-20.71,13.72-35.29,13.72Z" fill="#f9b499"/><path d="M161.29,261.4s-3.89,5.73-.7,11.15c0,0,1.62,3.13.7-4.52A25.18,25.18,0,0,1,161.29,261.4Z" fill="#fab486"/><path d="M144.18,229.14S131.69,256,133,270.75C133,270.75,132.42,242.71,144.18,229.14Z" fill="#fab486"/><path d="M210.73,629.91c-.52-2.54-3.22-6.82-13.09-12.79-16.5-10-25.54-24.44-24.81-39.71h-.06c1.64-18.65,5.55-66.49,5.18-94,1.29-3.11,2.65-9.91,1.29-24.45h0c12.55-73.76,13.68-160.87,13.69-161.75l0-2.07-1.35,1.58c-19.57,22.94-45.45,31-45.71,31.11l-.51.16,0,.53c-2.18,52.63,4.93,128.89,5,129.65l0,.27.09.09a50.66,50.66,0,0,0-.82,25.52c-.83,6.55-3.19,34.7,5.33,100.26-.15,1.29-1,8.3-1.78,14.39-.15,1.11-.32,2.29-.5,3.5-1.22,8.45-2.49,17.19.81,19.55,3.46,2.46,11.08,3.73,17.2,4.75l.39.06a68.06,68.06,0,0,1,7.6,2.13c6.75,2.12,16.22,5.09,24.61,5.09a26.73,26.73,0,0,0,6.61-.76l.27-.07.17-.23A3.61,3.61,0,0,0,210.73,629.91Z" fill="#f9b499"/><path d="M211.51,630.86c-1.5-7.29-13.81-14.7-14.33-15l-.41-.25-.25.42a5,5,0,0,1-3.55,2.37c-10.64,2.18-36.05-15.79-38.76-17.74l.25-1.8-.88-.33c-3.07,4.81-3.21,11.46-2.78,16.23l-.07,0,.16.88c.16,1.53.38,2.82.55,3.72a90.28,90.28,0,0,1,.82,13.71,1.93,1.93,0,0,0,.87,1.39,4.2,4.2,0,0,0,2.43.62,14.4,14.4,0,0,0,3.89-.66l.41-.12-.07-.43a32.78,32.78,0,0,1,.11-8.09c11.91,5.52,33.08,12.16,44.07,12.16.52,0,1,0,1.49,0,2.56-.16,4.2-.78,5-1.89A6.19,6.19,0,0,0,211.51,630.86Z" fill="#bf3c3c"/><path d="M166.62,349l0-.33-.21-.26c-.19-.23-19.58-23.12-55.51-24.35l-.77,0v.77c0,.72-.84,73,2.39,131.91v0c-1,3.8-4.39,17.56-1.9,26.59-1,4.27-8.05,35.57-8.78,112.1a4.47,4.47,0,0,0,0,.74c-2.61,11.51-5.52,28.47-3.53,48.46,2,19.59,7.89,21,19.44,21l2.84,0h1.92a5.77,5.77,0,0,0,4.8-2.17c3.77-4.89.7-17-2-27.7-.59-2.31-1.14-4.49-1.6-6.48a163.09,163.09,0,0,1-3.51-37.76c4.57-16.77,18-68.27,21.61-104.21.12-.18.25-.36.36-.54.2-.39,4.86-9.65,2.84-26.56l.07-.28C145.25,459.3,159.23,400.91,166.62,349Z" fill="#f9b499"/><path d="M120.66,611.46l-.94.21c0,.2,3.77,20-1.74,27a5.84,5.84,0,0,1-4.55,2.37h-.33c-11.49,0-13.42-29-13.44-29.3l-1,0c-3.6,32.4,1.63,46.62,1.69,46.79,3.79,8.21,10.25,13.09,17.31,13.09h.18c4.82-.06,8.87-2.52,10.56-6.42C132.21,656.49,121.13,613.29,120.66,611.46Z" fill="#bf3c3c"/><path d="M180.81,284.7c-3.47-10.57-6-52.13-3.8-78.56,2.25-26.61-15.83-56.4-16-56.7l-.11-.18-.2,0a57.72,57.72,0,0,1-14.29-5.71l-.92-.54,4.17,22.08-.67,9.49c-4.94-4-10.59-12.15-10.62-12.18l-9.13-18.79-25.56-13.16-8.8,2.33.84.6c13.31,9.53,38.17,55.37,41.21,80.87s-3.2,70.47-3.26,70.92l-.06.39.38.14c5,1.77,11.62,2.37,18.24,2.37a173.41,173.41,0,0,0,28.22-2.7l.54-.1Z" fill="#f2f2f2"/><path d="M196.05,297.12l-7-17.25-.58-7.38-.57.17c-29.16,9-77.68,3.39-78.17,3.33l-.54-.06v9.15c-1.28,2.4-21.54,42.85-3.47,155.1l0,.25.23.11c.17.08,13.58,6.22,44.41,6.22a295.05,295.05,0,0,0,39-2.79l.37-.05.05-.36C189.94,442.62,203.36,348.58,196.05,297.12Z" fill="#000000"/><path d="M154.81,246.89c-4.35-40.79-16.34-94.09-48.74-116.37l-.14-.09h-.16c-.21,0-21.35,1.5-33.3,8.52l-.27.16,0,.31c0,.37,4.07,37.3,20.62,63.72,15.22,24.3,13.23,66.18-5.32,112l-.13.33.27.23c.19.15,19.07,15.27,68.36,15.51h.45l0-.45A516.36,516.36,0,0,0,154.81,246.89Z" fill="#bf3c3c"/><g opacity="0.2"><path d="M153.39,242.76c-7.34-18.55-20.44-36.2-20.58-36.38l-.16-.21,4.16-10.34L121.7,185.15v-.26a115.19,115.19,0,0,0-6.44-39.38l.89-.35a115.93,115.93,0,0,1,6.52,39.5L138,195.49,133.75,206c1.53,2.1,13.6,18.84,20.54,36.38Z"/></g><polygon points="104.87 125.16 99.69 131.51 122.28 156.07 129.5 143.8 104.87 125.16" fill="#f2f2f2"/><path d="M209.87,325.72c-.1-.34-9.92-34-17.83-53.16-10.3-24.92-7.09-49.24-6.89-50.63l9.44-21.57.06-.14,0-.14c-1.69-9.6-21-45.4-21.86-46.92l-.07-.12-.11-.07c-13.24-7.71-23.27-10.34-23.37-10.36l-.2-.05-3.46,2.21.16.38c.2.47,20.32,47.54,25.11,99.15s14.89,84.62,15,84.94l.11.34h.67c10.64,0,22.82-3.23,22.94-3.26l.48-.13Z" fill="#bf3c3c"/><g opacity="0.2"><path d="M171.77,239.23l-1-.13c2.17-15.42,2.91-39.15,3-41.58l-7.64-8,4.59-10.8-20.93-32.45.82-.52,21.2,32.88-4.54,10.68,7.47,7.83v.2C174.76,197.6,174.06,223,171.77,239.23Z"/></g><path d="M139.46,128.85l12.9,10L148,149.77l-6.58-5.57s-1.87-1.85-2.06-8.74C139.31,135.46,139.31,130,139.46,128.85Z" fill="#f2f2f2"/><path d="M75.46,302.27c-8.18-.28-19.93-3.48-20-3.52l-.53-.14L53,312.08l.32.15c5.46,2.55,12.63,3,17,3,2.16,0,3.61-.11,3.78-.13l.39,0L76,302.29Z" fill="#000000"/><path d="M96,177.27,73.06,139.94c.07-.27.12-.42.12-.44l-.46-.12h0l-.47-.13c0,.17-4.65,17.07-7.31,45.89S51.62,299.85,51.51,300.71l0,.38.34.13c.63.25,13.13,5.11,23.69,5.11a24.67,24.67,0,0,0,6-.65l.33-.08L87,246.83c0-.49,4.68-49.09,9.51-69.45Z" fill="#bf3c3c"/><path d="M151.54,249.47a2.21,2.21,0,1,1-2.15-2.69A2.46,2.46,0,0,1,151.54,249.47Z" opacity="0.2"/><ellipse cx="150.23" cy="292.22" rx="2.15" ry="2.69" opacity="0.2"/><rect x="762.27" y="49.14" width="32.57" height="2" fill="#fff"/><rect x="762.27" y="55.43" width="32.57" height="2" fill="#fff"/><rect x="762.27" y="61.72" width="32.57" height="2" fill="#fff"/><path d="M111.78,111.48l.63-7.16s6.43,14.45,27.79,18.23C140.2,122.55,122,124.05,111.78,111.48Z" fill="#f4a48e"/><path d="M89.39,88c-4.74-25.36,5.44-46.16,10.12-54,3.91-3.22,8.28-3.76,13-1.58l.82.38,1.59-5.55-.26-.32c-.13-.15-13.17-15.59-27.61-5.1h0A40.63,40.63,0,0,0,80.35,28C74.12,33.3,66,43,62.32,59.07a123.44,123.44,0,0,0-3.17,33c.11,5.84.19,10.46-1.34,15.35l-2.65,8.51L59.24,108c.12-.23,2.9-5.8,2.57-20.27C61.67,81.29,63.1,71.37,65.63,62a94.69,94.69,0,0,0-1,21.11c1.1,17.27-1.39,30.77-6.86,37.53-1.88,0-5.35-.3-7.75-2.68s-3.16-6-2.48-11.08l.87-6.44-2.36,6c-.16.43-4,10.44-.89,17,0,0,2.21,7.68,14.46,7.14a20.42,20.42,0,0,0,11.58-4.09c13.67-10,14.72-27.42,13.2-40.28-.53-4.44-.15-12.21,1.35-20.68C85.77,65.49,87.58,85.11,89.39,88Z" fill="#000000"/><path d="M109.72,22.74a7.13,7.13,0,1,0,7.13,7.12A7.13,7.13,0,0,0,109.72,22.74Z" fill="#bf3c3c"/><path d="M169.25,43.31s-4.18-25.44-42.33-21.7C98.88,24.35,93.27,49.05,93.27,64s4.08,30.13,18.56,43.4Z" fill="#000000"/><path d="M136.33,123.11s20.33,2.79,30.37-50.43c.83-4.43,3.12-16.08-2.23-23.69-5.55-7.91-9.66-12.45-29.32-14-1.12-.08-2.24-.13-3.32-.13-8.65,0-15.78,2.81-20.64,8.13-5.13,5.62-7.38,13.6-6.51,23.06.95,10.34,1.68,12.62,2.39,14.83.63,1.94,1.22,3.77,2,11,0,.42,0,10.23,2.24,13.66C111.26,105.51,121.91,121,136.33,123.11Z" fill="#f9b499"/><path d="M108.87,73.2s-4.24-4.45-7.15,2.22,2.65,23.34,8.74,15.56" fill="#f9b499"/><path d="M173.86,72.4c.21-.65.41-1.3.59-1.92a.24.24,0,0,0,0-.08v0C182.22,42.47,161,39,161,39s-14.57-10.18-40.35-3.85S101,76.84,101,76.84a19.15,19.15,0,0,1,1.64-8.65c-.12,11.63,4.82,21.06,8,26h0l0,.06a35.37,35.37,0,0,0,2.58,3.52h0l0,0c-6.64-22.64,8-35.92,8-35.92,3.39,4.52-1.88,10.26-1.88,10.26a31.44,31.44,0,0,0,17.09-8.91,12.54,12.54,0,0,1-8.41,8.91c15.39-1,23.66-18.4,23.66-18.4.62,9.27-10.35,18.4-10.35,18.4,14-6,16.47-25,16.47-25C165.07,62.31,164,69.82,164,69.82c3.12-5.38,2.88-9.09,2.88-9.09A25.2,25.2,0,0,1,168,78.29c5.58-4.91,3.93-12.85,3.93-12.85a11,11,0,0,1,.42,1l.12.33c.07.22.15.45.22.68l.09.36c.06.21.11.43.16.64s.05.23.07.34.07.44.1.65,0,.2.05.29c0,.25.05.5.06.74a.88.88,0,0,1,0,.16,16.43,16.43,0,0,1,0,1.72s0,.1,0,.15c0,.21,0,.42,0,.62s0,.13,0,.19-.05.36-.07.53l0,.17-.09.49,0,.14c0,.17-.07.33-.11.49v0c0,.17-.08.33-.12.47l0,.1c0,.09-.06.18-.08.26l0,.06c-.07.17-.12.34-.19.51,0,0,.05-.11.12-.31v0l0-.09a.19.19,0,0,0,0,.07c.12-.32.21-.62.33-.93.24-.68.49-1.35.71-2C173.68,73,173.77,72.71,173.86,72.4Z" fill="#000000"/></svg>