<?xml version="1.0" standalone="no"?>
<!DOCTYPE svg PUBLIC "-//W3C//DTD SVG 20010904//EN"
 "http://www.w3.org/TR/2001/REC-SVG-20010904/DTD/svg10.dtd">
<svg version="1.0" xmlns="http://www.w3.org/2000/svg"
 width="700.000000pt" height="700.000000pt" viewBox="0 0 700.000000 700.000000"
 preserveAspectRatio="xMidYMid meet">
<metadata>
Created by potrace 1.14, written by Peter Selinger 2001-2017
</metadata>
<g transform="translate(0.000000,700.000000) scale(0.100000,-0.100000)"
fill="#000000" stroke="none">
<path d="M3460 6190 l-32 -63 42 -101 c47 -113 60 -131 144 -187 68 -46 83
-47 212 -17 93 21 97 23 126 65 33 48 76 139 84 175 2 13 6 38 9 56 2 18 7 37
10 42 10 16 -28 28 -105 34 -81 6 -140 13 -180 22 -62 14 -141 26 -207 31
l-72 5 -31 -62z"/>
<path d="M2770 6139 c-47 -10 -128 -21 -180 -24 -110 -7 -166 -19 -173 -39 -9
-23 67 -169 112 -215 93 -95 186 -97 319 -8 95 63 114 79 174 140 27 27 48 57
48 67 0 21 -51 67 -97 87 -41 17 -97 15 -203 -8z"/>
<path d="M4745 6127 c-22 -34 -43 -137 -38 -192 5 -54 31 -115 67 -155 48 -52
105 -139 165 -250 67 -122 104 -170 132 -170 23 0 121 134 168 230 84 171 78
311 -19 398 -61 55 -304 150 -401 157 -53 4 -61 2 -74 -18z"/>
<path d="M2163 6015 c-68 -16 -117 -48 -155 -103 -43 -63 -70 -93 -156 -176
-83 -80 -109 -118 -89 -134 11 -9 48 -23 72 -28 6 -1 37 -7 70 -14 33 -7 104
-13 157 -13 89 0 103 3 155 29 92 47 115 104 114 286 0 66 -5 100 -18 127 -16
33 -22 36 -59 36 -23 1 -64 -4 -91 -10z"/>
<path d="M4175 5894 c-153 -30 -164 -40 -204 -184 -49 -177 -11 -243 135 -235
132 6 387 106 478 187 56 49 77 86 78 139 1 89 -65 109 -277 86 -16 -2 -47 2
-69 10 -45 15 -50 15 -141 -3z"/>
<path d="M3004 5882 c-24 -7 -48 -20 -53 -30 -19 -38 -53 -211 -53 -277 -1
-108 32 -158 121 -181 109 -28 371 50 459 137 55 54 75 103 70 171 -7 99 -63
138 -204 143 -58 2 -82 8 -118 29 -38 22 -55 26 -111 24 -37 -2 -87 -9 -111
-16z"/>
<path d="M6140 5730 c-14 -4 -34 -6 -45 -4 -59 10 -65 -12 -41 -156 18 -105
24 -164 31 -310 8 -168 21 -281 37 -322 12 -31 39 -42 165 -63 42 -7 45 -5
179 91 l137 98 38 81 c21 45 45 107 53 138 18 70 13 89 -72 250 -61 116 -65
120 -167 155 -120 40 -254 58 -315 42z"/>
<path d="M3644 5660 c-12 -4 -37 -30 -56 -57 -27 -36 -37 -62 -43 -108 -4 -32
-8 -67 -10 -76 -21 -109 -24 -234 -6 -268 11 -21 13 -21 40 -5 15 9 39 35 54
58 15 22 56 73 92 111 69 75 69 74 66 178 -3 137 -55 200 -137 167z"/>
<path d="M2591 5649 c-56 -7 -177 -63 -221 -102 -32 -28 -113 -293 -113 -369
0 -82 46 -122 119 -104 13 4 60 31 104 61 82 56 122 79 277 160 101 52 105 59
97 155 -11 140 -115 218 -263 199z"/>
<path d="M5307 5584 c-108 -73 -200 -215 -213 -329 -13 -111 3 -224 40 -280
19 -29 127 -93 220 -130 102 -40 122 -34 300 85 82 55 161 103 175 106 49 10
76 32 104 87 48 91 39 189 -25 297 -28 46 -44 60 -103 90 -115 58 -188 78
-324 86 -47 3 -98 7 -113 9 -16 2 -40 -6 -61 -21z"/>
<path d="M4445 5422 c-179 -117 -218 -184 -169 -287 29 -61 192 -163 318 -200
136 -40 270 22 280 129 5 47 -16 88 -73 149 -35 37 -53 66 -62 100 -10 41 -22
57 -72 99 -57 47 -94 68 -120 68 -7 0 -53 -26 -102 -58z"/>
<path d="M1727 5445 c-38 -9 -45 -16 -69 -65 -54 -111 -54 -180 0 -217 21 -14
47 -18 122 -18 124 0 268 23 295 46 5 5 17 9 27 9 10 0 38 19 63 43 94 91 41
161 -130 171 -43 3 -87 11 -99 19 -28 19 -152 26 -209 12z"/>
<path d="M3870 5424 c0 -3 -11 -56 -25 -117 -14 -62 -27 -122 -30 -134 -2 -13
-6 -26 -8 -30 -3 -5 -8 -26 -11 -47 -13 -83 -16 -88 -45 -81 -32 8 -416 94
-451 100 -14 3 -38 9 -55 13 -30 9 -31 10 -23 72 3 26 -9 30 -167 55 -160 26
-161 26 -295 -38 -81 -38 -136 -71 -160 -96 l-36 -37 -28 20 -27 21 -56 -60
c-99 -108 -205 -215 -212 -215 -3 0 -17 10 -31 23 -14 12 -74 64 -134 115
l-109 93 -31 -29 c-172 -163 -226 -217 -225 -226 0 -6 63 -67 140 -136 77 -69
148 -134 159 -146 23 -23 41 1 -165 -220 -55 -59 -116 -124 -136 -145 l-36
-39 -37 29 c-21 17 -43 27 -49 25 -24 -11 -206 -244 -211 -271 -4 -21 -19
-202 -20 -248 0 -16 3 -46 7 -66 7 -32 5 -37 -21 -50 l-29 -14 53 -170 c30
-93 54 -177 54 -185 0 -10 -40 -29 -128 -58 -70 -24 -146 -50 -168 -59 l-42
-15 15 -61 c30 -126 33 -139 57 -226 8 -29 17 -56 20 -59 4 -3 37 4 74 16 37
12 130 41 208 65 l141 44 26 -81 c14 -45 53 -166 86 -271 34 -104 61 -192 61
-196 0 -4 -18 -14 -40 -23 -22 -9 -40 -22 -40 -28 0 -18 40 -128 84 -228 l37
-85 117 -76 c64 -42 131 -81 147 -87 31 -10 32 -12 21 -48 -6 -20 1 -24 126
-53 73 -17 159 -37 191 -43 63 -13 66 -19 48 -88 -6 -19 -12 -48 -15 -65 -3
-16 -10 -57 -16 -90 -6 -33 -14 -76 -17 -96 l-5 -35 172 -48 c126 -35 174 -45
180 -36 5 9 39 147 54 225 7 32 38 172 41 181 2 8 41 3 122 -17 65 -16 127
-31 138 -33 72 -15 291 -69 297 -75 4 -3 3 -23 -2 -44 -7 -34 -6 -39 13 -47
20 -8 88 -23 172 -36 17 -3 55 -9 86 -15 57 -9 74 -5 194 51 11 5 45 20 75 33
44 19 83 53 198 171 l142 146 43 -38 c23 -20 44 -39 47 -42 3 -3 38 -34 79
-70 41 -36 91 -80 110 -97 l36 -32 35 32 c68 64 156 145 195 181 l40 36 -70
66 c-173 164 -233 223 -240 234 -4 7 35 54 97 118 56 59 155 162 218 230 63
67 118 122 121 122 4 0 21 -11 37 -25 17 -14 34 -25 39 -25 9 0 149 167 192
228 25 36 26 42 37 208 5 79 3 122 -6 149 -8 25 -9 40 -3 42 6 2 18 9 28 17
16 11 14 24 -38 191 -31 99 -55 181 -53 182 2 2 74 28 162 58 87 31 164 57
170 60 8 2 -2 57 -32 172 -24 92 -44 172 -44 176 0 5 -8 6 -17 4 -32 -9 -382
-117 -397 -123 -10 -4 -24 26 -56 118 -47 140 -93 284 -120 375 l-18 63 39 10
c36 10 39 13 33 38 -8 34 -42 125 -83 223 l-32 77 -122 81 c-68 45 -130 81
-139 81 -36 0 -47 11 -42 40 6 28 5 28 -72 46 -44 10 -81 19 -84 19 -67 14
-207 49 -212 54 -4 4 8 83 26 176 19 94 31 173 28 177 -7 6 -328 98 -344 98
-4 0 -8 -3 -8 -6z m-345 -1830 c65 -34 128 -95 170 -166 143 -242 33 -545
-235 -650 -105 -40 -259 -30 -369 25 -59 29 -145 109 -177 163 -90 153 -87
343 8 483 75 111 195 184 328 200 68 8 204 -19 275 -55z"/>
<path d="M1257 5108 c-14 -29 -22 -57 -18 -63 4 -5 20 -41 36 -80 31 -75 34
-79 111 -130 51 -34 69 -36 126 -19 10 3 29 7 43 10 51 9 75 24 99 62 34 54
54 104 61 154 4 24 9 46 11 50 8 12 -13 18 -78 23 -35 3 -117 14 -183 25 -180
30 -179 30 -208 -32z"/>
<path d="M5670 4785 c-30 -7 -94 -24 -142 -40 -71 -22 -97 -37 -135 -73 -46
-43 -95 -70 -195 -106 -42 -15 -67 -43 -60 -67 1 -8 10 -79 11 -95 1 -6 26
-28 56 -48 30 -20 56 -44 56 -54 1 -9 3 -53 4 -97 2 -44 3 -86 4 -93 2 -20 61
-51 91 -47 14 2 75 26 136 55 60 29 162 69 226 90 64 21 151 54 192 74 79 38
95 59 82 109 -5 23 -61 110 -109 170 -17 21 -36 66 -47 107 -19 75 -42 119
-63 121 -6 0 -21 2 -32 3 -11 1 -45 -3 -75 -9z"/>
<path d="M1163 4740 c-31 -10 -82 -61 -84 -83 0 -7 -2 -21 -5 -32 -10 -46 -7
-164 4 -178 14 -17 107 -15 140 2 39 21 244 232 238 246 -13 34 -223 66 -293
45z"/>
<path d="M1677 4694 c-76 -18 -110 -43 -127 -95 -8 -23 -28 -60 -45 -83 -79
-103 -74 -107 116 -102 168 5 200 10 254 39 53 30 57 61 15 127 -29 46 -101
119 -118 121 -4 0 -14 2 -22 3 -8 2 -41 -3 -73 -10z"/>
<path d="M6211 4669 c-46 -28 -65 -52 -102 -127 -31 -63 -73 -212 -83 -293 -3
-24 -8 -55 -10 -69 -6 -36 -15 -138 -22 -252 -7 -109 1 -131 42 -124 47 9 70
19 137 63 90 59 169 95 267 124 59 17 90 32 115 56 59 57 135 243 135 330 0
70 -127 187 -304 282 -70 37 -125 40 -175 10z"/>
<path d="M799 4422 c-54 -26 -58 -30 -78 -88 -15 -41 -21 -78 -19 -115 l3 -54
40 2 c86 4 252 11 280 12 43 2 53 11 63 58 9 40 8 45 -35 107 -73 106 -147
128 -254 78z"/>
<path d="M1313 4375 c-23 -7 -62 -25 -87 -41 -41 -26 -46 -34 -71 -113 -45
-140 -46 -204 -2 -220 26 -10 75 8 122 44 18 13 72 45 121 70 111 59 124 73
120 128 -5 58 -21 89 -59 114 -41 27 -91 33 -144 18z"/>
<path d="M895 4101 c-38 -18 -73 -46 -105 -87 -9 -10 -25 -26 -37 -34 -31 -21
-21 -65 17 -79 22 -7 31 -19 40 -50 13 -50 35 -53 82 -13 18 16 53 42 78 59
57 39 90 68 90 79 0 5 -18 27 -40 49 -21 22 -50 52 -62 67 l-23 28 -40 -19z"/>
<path d="M1060 3861 c-25 -15 -53 -38 -64 -49 -16 -19 -17 -25 -6 -52 19 -45
53 -67 116 -75 31 -4 76 -13 99 -20 26 -7 48 -9 58 -3 33 18 -49 194 -101 217
-35 16 -53 13 -102 -18z"/>
<path d="M758 3683 c-34 -40 -51 -95 -62 -210 -4 -42 -3 -64 5 -69 6 -4 35 5
63 20 28 14 68 33 89 41 29 11 42 25 57 57 11 24 20 53 20 64 0 37 -96 114
-142 114 -8 0 -22 -8 -30 -17z"/>
<path d="M1058 3587 c-15 -18 -28 -38 -28 -45 0 -20 -41 -96 -59 -109 -9 -6
-14 -14 -11 -16 13 -13 108 -34 135 -30 130 18 205 62 205 122 0 38 -24 52
-99 57 -45 2 -60 8 -78 28 -12 15 -26 26 -30 26 -4 0 -20 -15 -35 -33z"/>
<path d="M1068 3317 c-38 -32 -88 -107 -88 -132 0 -24 34 -47 72 -49 13 -1 52
9 88 21 36 12 73 23 82 23 26 0 68 22 68 34 -1 17 -52 71 -94 100 -48 32 -92
33 -128 3z"/>
<path d="M810 3291 c-19 -10 -52 -21 -74 -25 l-39 -7 6 -58 c3 -32 12 -70 22
-84 16 -24 22 -45 24 -74 1 -17 51 -16 75 2 11 8 30 12 47 8 33 -6 59 10 54
35 -19 91 -49 199 -57 210 -13 15 -16 15 -58 -7z"/>
<path d="M877 2865 c-18 -35 -21 -156 -4 -197 19 -44 54 -70 86 -61 50 13 128
245 91 268 -8 5 -47 9 -88 9 -64 1 -75 -2 -85 -19z"/>
<path d="M1377 2665 c-62 -60 -47 -98 51 -130 76 -24 128 -24 153 2 28 28 19
54 -31 87 -22 14 -40 30 -40 34 0 10 -65 42 -84 42 -7 0 -29 -16 -49 -35z"/>
<path d="M1077 2653 c-35 -34 42 -188 117 -237 l41 -27 3 28 c1 15 10 44 18
64 9 20 14 49 12 65 -2 23 -9 30 -36 35 -19 4 -51 23 -71 43 -34 33 -68 45
-84 29z"/>
<path d="M975 2382 c-11 -4 -27 -11 -35 -17 -25 -17 -78 -89 -85 -117 -6 -23
-2 -29 24 -42 38 -20 69 -20 115 -1 19 8 58 20 85 26 27 5 56 16 65 22 14 11
12 17 -21 54 -34 38 -103 85 -121 82 -4 -1 -16 -4 -27 -7z"/>
<path d="M1425 2346 c-72 -31 -83 -71 -32 -117 87 -81 207 -100 207 -33 0 35
-104 164 -131 164 -8 -1 -28 -7 -44 -14z"/>
<path d="M1100 2167 c-11 -18 -23 -47 -26 -66 -6 -28 -3 -38 16 -53 12 -10 36
-19 54 -20 128 -6 189 15 194 69 3 30 0 32 -55 53 -32 12 -63 26 -69 31 -7 5
-30 12 -53 14 -38 4 -43 2 -61 -28z"/>
<path d="M1612 1948 c-18 -11 -44 -20 -58 -20 -28 0 -28 -12 0 -80 18 -41 97
-115 134 -125 60 -15 81 52 38 117 -15 23 -26 56 -28 82 -3 38 -6 43 -28 45
-14 1 -40 -7 -58 -19z"/>
<path d="M1295 1939 c-17 -26 -5 -69 38 -137 26 -39 49 -72 51 -72 10 0 56 82
61 108 9 51 -37 90 -123 107 -12 2 -24 -1 -27 -6z"/>
<path d="M853 1891 c-23 -10 -31 -28 -38 -85 -6 -44 21 -76 62 -76 44 0 138
30 167 53 53 44 32 107 -36 107 -18 0 -55 2 -83 5 -27 3 -60 1 -72 -4z"/>
<path d="M1050 1615 c-7 -8 -20 -15 -29 -15 -9 0 -26 -9 -39 -18 l-24 -18 42
-28 c63 -41 178 -86 238 -93 50 -5 52 -5 52 20 0 26 -52 71 -158 135 -60 37
-65 38 -82 17z"/>
<path d="M1470 1577 c-29 -14 -65 -83 -75 -144 -6 -40 -6 -41 24 -48 41 -9 85
2 107 26 10 11 44 36 76 55 32 20 58 41 58 47 0 17 -88 64 -130 71 -20 3 -47
0 -60 -7z"/>
<path d="M1960 1525 c-39 -47 123 -205 211 -205 17 0 18 3 8 21 -6 12 -9 38
-5 59 3 21 1 51 -5 67 -9 26 -15 30 -47 30 -20 0 -55 10 -77 22 -47 25 -68 26
-85 6z"/>
<path d="M374 1388 c-64 -87 -86 -133 -82 -173 l3 -34 40 18 c45 21 133 102
154 143 13 26 12 30 -20 67 -19 22 -37 40 -42 40 -4 1 -28 -27 -53 -61z"/>
<path d="M1753 1404 c-21 -20 -33 -42 -33 -59 0 -29 27 -95 39 -95 4 0 25 15
47 33 21 18 55 45 76 60 44 33 42 62 -8 83 -49 21 -85 14 -121 -22z"/>
<path d="M759 1387 c-18 -14 -53 -66 -48 -71 2 -2 44 -21 92 -41 85 -36 88
-37 102 -19 8 11 12 28 10 39 -2 11 -4 27 -4 36 -1 9 -12 28 -26 43 -19 20
-33 26 -67 26 -24 0 -50 -6 -59 -13z"/>
<path d="M1416 1271 c-15 -15 -30 -41 -35 -58 -8 -26 -5 -35 12 -51 27 -24
127 -46 172 -38 34 7 63 32 59 54 -1 6 -2 16 -3 20 0 5 -21 19 -46 32 -25 13
-45 26 -45 31 0 7 -18 16 -62 29 -21 7 -31 3 -52 -19z"/>
<path d="M1028 1211 c-54 -18 -73 -41 -87 -100 l-9 -41 62 -1 c33 0 89 -2 124
-4 57 -4 64 -2 78 20 14 22 14 26 -8 64 -13 22 -27 43 -33 45 -81 34 -78 34
-127 17z"/>
<path d="M514 1159 c-25 -21 -52 -39 -60 -39 -13 0 -13 -4 0 -29 35 -66 154
-137 208 -124 52 14 52 63 -1 112 -42 40 -61 70 -61 98 0 32 -38 24 -86 -18z"/>
<path d="M1886 1127 c-36 -48 -40 -73 -17 -96 27 -27 81 -40 160 -38 77 2 104
17 99 55 -3 26 -9 31 -68 57 -19 9 -46 22 -60 29 -14 7 -40 16 -57 19 -28 6
-36 2 -57 -26z"/>
<path d="M2405 1151 c-19 -4 -41 -21 -63 -51 -19 -25 -49 -63 -68 -85 -19 -21
-34 -45 -34 -51 0 -17 104 -38 149 -30 59 9 81 44 81 129 0 94 -5 100 -65 88z"/>
<path d="M1512 970 c-17 -11 -38 -32 -46 -49 -14 -27 -14 -31 4 -53 10 -14 46
-37 79 -52 112 -50 199 -31 165 36 -8 16 -18 28 -22 28 -4 0 -26 18 -49 39
-23 22 -55 47 -71 55 -26 13 -31 13 -60 -4z"/>
<path d="M591 856 c-25 -25 -43 -47 -40 -49 13 -11 71 -28 121 -35 62 -10 214
-10 223 0 12 12 -18 55 -48 67 -55 21 -145 50 -179 56 -29 5 -38 1 -77 -39z"/>
</g>
</svg>
